<svg id="icons" enable-background="new 0 0 64 64" height="512" viewBox="0 0 64 64" width="512" xmlns="http://www.w3.org/2000/svg"><path d="m25 2.5c-8.28 0-15 6.71-15 15v8.811l15-2.811 15 2.811v-8.811c0-8.29-6.72-15-15-15z" fill="#ccd1d9"/><path d="m30 61.5h-10c0-2.76 2.24-5 5-5s5 2.24 5 5z" fill="#ed5565"/><path d="m59 24.5v9h-10v-9h-4l9-11.01 9 11.01z" fill="#a0d468"/><path d="m14 16.5h7v3h-7z" fill="#656d78"/><path d="m29 16.5h7v3h-7z" fill="#656d78"/><path d="m10 26.311 15-2.811 15 2.811 1 .189v9l-8 4.5-8 4.5-8-4.5-8-4.5v-9z" fill="#e6e9ed"/><path d="m33 40v5.5l-8 4-8-4v-5.5l8 4.5z" fill="#ccd1d9"/><path d="m49 53.5v7c0 .55-.45 1-1 1h-4c-7-6-7-16-7-16h4c4.42 0 8 3.58 8 8z" fill="#e6e9ed"/><path d="m25 49.5 8-4h4s0 10 7 16h-14c0-2.76-2.24-5-5-5s-5 2.24-5 5h-14c7-6 7-16 7-16h4z" fill="#656d78"/><path d="m9 45.5h4s0 10-7 16h-4c-.55 0-1-.45-1-1v-7c0-4.42 3.58-8 8-8z" fill="#e6e9ed"/><path d="m1 54.503c-.553 0-1-.447-1-1 0-4.964 4.038-9.002 9.002-9.002.553 0 1 .447 1 1s-.447 1-1 1c-3.861 0-7.002 3.141-7.002 7.002 0 .553-.447 1-1 1z"/><path d="m49 54.502c-.553 0-1-.447-1-1 0-3.859-3.141-7-7-7-.553 0-1-.447-1-1s.447-1 1-1c4.963 0 9 4.037 9 9 0 .553-.447 1-1 1z"/><path d="m17 46.502-7.998-.001c-.553 0-1-.448-1-1 0-.553.448-1 1-1l7.998.001c.553 0 1 .448 1 1 0 .553-.448 1-1 1z"/><path d="m41 46.502-8-.001c-.553 0-1-.448-1-1 0-.553.448-1 1-1l8 .001c.553 0 1 .448 1 1 0 .553-.448 1-1 1z"/><path d="m1.001 61.5c-.552 0-1-.447-1-1l-.001-6.997c0-.552.447-1 1-1 .552 0 1 .447 1 1l.001 6.997c0 .552-.447 1-1 1z"/><path d="m2.001 62.5c-1.103 0-2-.897-2-2 0-.553.447-1 1-1s1 .447 1 1v.002c.553 0 1 .446 1 .999 0 .552-.447.999-1 .999z"/><path d="m48 62.5c-.553 0-1-.447-1-1s.447-1 1-1h.002c0-.553.446-1 .999-1 .552 0 .999.447.999 1 0 1.103-.897 2-2 2z"/><path d="m49 61.5c-.553 0-1-.447-1-1v-6.998c0-.553.447-1 1-1s1 .447 1 1v6.998c0 .553-.447 1-1 1z"/><path d="m48 62.5h-45.999c-.553 0-1-.447-1-1s.447-1 1-1h45.999c.553 0 1 .447 1 1s-.447 1-1 1z"/><path d="m17 46.502c-.553 0-1-.447-1-1v-5.502c0-.553.447-1 1-1s1 .447 1 1v5.502c0 .553-.447 1-1 1z"/><path d="m33 46.501c-.553 0-1-.447-1-1v-5.501c0-.553.447-1 1-1s1 .447 1 1v5.501c0 .553-.447 1-1 1z"/><path d="m24.999 50.502c-.15 0-.303-.034-.446-.105l-8-4c-.494-.247-.694-.848-.447-1.342s.848-.692 1.342-.447l8 4c.494.247.694.848.447 1.342-.176.35-.529.552-.896.552z"/><path d="m25.001 50.502c-.367 0-.72-.202-.896-.553-.247-.494-.047-1.095.447-1.342l8-4.001c.494-.245 1.094-.047 1.342.447.247.494.047 1.095-.447 1.342l-8 4.001c-.143.072-.296.106-.446.106z"/><path d="m8.999 27.5c-.472 0-.892-.335-.981-.815-.103-.543.255-1.065.798-1.167l16-3c.549-.1 1.065.256 1.167.798.103.543-.255 1.065-.798 1.167l-16 3c-.063.011-.125.017-.186.017z"/><path d="m41.001 27.5c-.061 0-.123-.006-.186-.018l-16-3c-.543-.102-.9-.624-.798-1.167.102-.542.617-.897 1.167-.798l16 3c.543.102.9.624.798 1.167-.089.481-.509.816-.981.816z"/><path d="m40 18.5c-.553 0-1-.447-1-1 0-7.72-6.28-14-14-14s-14 6.28-14 14c0 .553-.447 1-1 1s-1-.447-1-1c0-8.822 7.178-16 16-16s16 7.178 16 16c0 .553-.447 1-1 1z"/><path d="m10 27.313c-.553 0-1-.447-1-1v-8.813c0-.553.447-1 1-1s1 .447 1 1v8.813c0 .552-.447 1-1 1z"/><path d="m40 27.313c-.553 0-1-.447-1-1v-8.813c0-.553.447-1 1-1s1 .447 1 1v8.813c0 .552-.447 1-1 1z"/><path d="m25 20.5c-.553 0-1-.447-1-1v-13c0-.553.447-1 1-1s1 .447 1 1v13c0 .553-.447 1-1 1z"/><path d="m25 40.5c-.553 0-1-.447-1-1v-11c0-.553.447-1 1-1s1 .447 1 1v11c0 .553-.447 1-1 1z"/><path d="m30 37.688c-.553 0-1-.447-1-1v-7.188c0-.553.447-1 1-1s1 .447 1 1v7.188c0 .552-.447 1-1 1z"/><path d="m35 34.875c-.553 0-1-.447-1-1v-3.5c0-.553.447-1 1-1s1 .447 1 1v3.5c0 .553-.447 1-1 1z"/><path d="m20 37.688c-.553 0-1-.447-1-1v-7.188c0-.553.447-1 1-1s1 .447 1 1v7.188c0 .552-.447 1-1 1z"/><path d="m15 34.875c-.553 0-1-.447-1-1v-3.5c0-.553.447-1 1-1s1 .447 1 1v3.5c0 .553-.447 1-1 1z"/><path d="m9 36.5c-.553 0-1-.447-1-1v-9c0-.553.447-1 1-1s1 .447 1 1v9c0 .553-.447 1-1 1z"/><path d="m24.999 45.5c-.166 0-.334-.041-.489-.129l-16-9c-.481-.271-.652-.88-.381-1.361.269-.481.879-.654 1.361-.381l16 9c.481.271.652.88.381 1.361-.183.326-.522.51-.872.51z"/><path d="m41 36.5c-.553 0-1-.447-1-1v-9c0-.553.447-1 1-1s1 .447 1 1v9c0 .553-.447 1-1 1z"/><path d="m25.001 45.5c-.35 0-.688-.184-.872-.51-.271-.481-.101-1.091.381-1.361l16-9c.482-.272 1.091-.101 1.361.381.271.481.101 1.091-.381 1.361l-16 9c-.155.088-.323.129-.489.129z"/><path d="m21 20.5h-7c-.553 0-1-.447-1-1v-3c0-.553.447-1 1-1h7c.553 0 1 .447 1 1v3c0 .553-.447 1-1 1zm-6-2h5v-1h-5z"/><path d="m36 20.5h-7c-.553 0-1-.447-1-1v-3c0-.553.447-1 1-1h7c.553 0 1 .447 1 1v3c0 .553-.447 1-1 1zm-6-2h5v-1h-5z"/><path d="m44 62.5c-.23 0-.462-.079-.65-.241-7.266-6.228-7.35-16.33-7.35-16.757 0-.552.447-.999.999-.999h.001c.552 0 .999.446 1 .998 0 .096.096 9.621 6.65 15.24.42.359.469.99.108 1.409-.196.232-.477.35-.758.35z"/><path d="m6 62.5c-.281 0-.562-.118-.759-.35-.36-.419-.312-1.05.108-1.409 6.575-5.636 6.651-15.143 6.651-15.239 0-.553.447-1 1-1s1 .447 1 1c0 .427-.084 10.529-7.35 16.757-.188.162-.42.241-.65.241z"/><path d="m25 53.5c-.553 0-1-.447-1-1v-2.998c0-.553.447-1 1-1s1 .447 1 1v2.998c0 .553-.447 1-1 1z"/><path d="m30 62.5c-.553 0-1-.447-1-1 0-2.206-1.794-4-4-4s-4 1.794-4 4c0 .553-.447 1-1 1s-1-.447-1-1c0-3.309 2.691-6 6-6s6 2.691 6 6c0 .553-.447 1-1 1z"/><path d="m63.001 25.5c-.29 0-.577-.125-.775-.367l-8.228-10.057-8.227 10.057c-.351.429-.979.49-1.407.142-.428-.351-.491-.98-.142-1.407l9.001-11.003c.381-.465 1.168-.465 1.549 0l9.002 11.003c.35.427.286 1.057-.142 1.407-.185.151-.408.225-.631.225z"/><path d="m48.998 34.5c-.553 0-1-.447-1-1v-9c0-.553.447-1 1-1s1 .447 1 1v9c0 .553-.447 1-1 1z"/><path d="m58.998 34.5h-10c-.553 0-1-.447-1-1s.447-1 1-1h10c.553 0 1 .447 1 1s-.447 1-1 1z"/><path d="m58.998 34.5c-.553 0-1-.447-1-1v-9c0-.553.447-1 1-1s1 .447 1 1v9c0 .553-.447 1-1 1z"/><path d="m58.999 37.5h-10.001c-.553 0-1-.447-1-1s.447-1 1-1h10.001c.553 0 1 .447 1 1s-.447 1-1 1z"/><path d="m58.999 40.5h-10.001c-.553 0-1-.447-1-1s.447-1 1-1h10.001c.553 0 1 .447 1 1s-.447 1-1 1z"/><path d="m58.999 43.5h-10.001c-.553 0-1-.447-1-1s.447-1 1-1h10.001c.553 0 1 .447 1 1s-.447 1-1 1z"/><path d="m48.998 25.5h-4.001c-.553 0-1-.447-1-1s.447-1 1-1h4.001c.553 0 1 .447 1 1s-.447 1-1 1z"/><path d="m63 25.5h-4.002c-.553 0-1-.447-1-1s.447-1 1-1h4.002c.553 0 1 .447 1 1s-.447 1-1 1z"/><path d="m56 27.5h-4c-.553 0-1-.447-1-1s.447-1 1-1h4c.553 0 1 .447 1 1s-.447 1-1 1z"/><path d="m54 29.499c-.553 0-1-.447-1-1v-3.998c0-.553.447-1 1-1s1 .447 1 1v3.998c0 .553-.447 1-1 1z"/><path d="m50 11.5c-.553 0-1-.447-1-1v-5c0-.553.447-1 1-1s1 .447 1 1v5c0 .553-.447 1-1 1z"/><path d="m54.001 11.5c-.367 0-.72-.202-.896-.553l-1.501-3.001c-.247-.494-.047-1.095.447-1.342.494-.245 1.095-.047 1.342.447l1.501 3.001c.247.494.047 1.095-.447 1.342-.143.072-.296.106-.446.106z"/><path d="m53.999 11.5c-.15 0-.303-.034-.446-.105-.494-.247-.694-.848-.447-1.342l1.5-3.001c.246-.494.847-.692 1.342-.447.494.247.694.848.447 1.342l-1.5 3.001c-.175.35-.529.552-.896.552z"/><path d="m58.001 11.5c-.553 0-1-.447-1-1v-5c0-.553.447-1 1-1s1 .447 1 1v5c0 .553-.447 1-1 1z"/></svg>