<?xml version="1.0" encoding="utf-8"?>
<!-- Generator: Adobe Illustrator 22.0.1, SVG Export Plug-In . SVG Version: 6.00 Build 0)  -->
<svg xmlns="http://www.w3.org/2000/svg" xmlns:xlink="http://www.w3.org/1999/xlink" version="1.1" id="Layer_1" x="0px" y="0px" viewBox="0 0 256 256" style="enable-background:new 0 0 256 256;" xml:space="preserve" width="512" height="512">
<style type="text/css">
	.st0{fill:#3A312A;}
	.st1{fill:#D7E057;}
	.st2{fill:#F16C7A;}
	.st3{fill:#FCE8CB;}
	.st4{fill:#87796F;}
	.st5{fill:#8AC6DD;}
	.st6{fill:#CE4E61;}
	.st7{fill:#6CA8BF;}
	.st8{fill:#B9C239;}
	.st9{fill:#DECAAD;}
	.st10{fill:#695B51;}
	.st11{fill-rule:evenodd;clip-rule:evenodd;fill:#FCE8CB;}
	.st12{fill:#F5978A;}
	.st13{fill:#68A8BC;}
	.st14{fill:#B9BC39;}
	.st15{fill:#6B5B51;}
	.st16{fill:#D34E5C;}
	.st17{fill-rule:evenodd;clip-rule:evenodd;fill:#87796F;}
	.st18{fill-rule:evenodd;clip-rule:evenodd;fill:#F16C7A;}
</style>
<g>
	<g>
		<g>
			<path class="st3" d="M17.404,52.043v176.28c0,6.16,5,11.16,11.16,11.16h144.41c6.16,0,11.16-5,11.16-11.16V52.043H17.404z"/>
		</g>
	</g>
	<g>
		<g>
			<path class="st0" d="M184.133,50.544H17.403c-0.829,0-1.5,0.672-1.5,1.5v37.017c0,0.828,0.671,1.5,1.5,1.5s1.5-0.672,1.5-1.5     V53.544h163.73v174.779c0,5.326-4.333,9.66-9.66,9.66H28.564c-5.327,0-9.66-4.334-9.66-9.66v-124.63c0-0.828-0.671-1.5-1.5-1.5     s-1.5,0.672-1.5,1.5v124.63c0,6.98,5.679,12.66,12.66,12.66h144.41c6.981,0,12.66-5.68,12.66-12.66V52.044     C185.633,51.216,184.962,50.544,184.133,50.544z"/>
		</g>
	</g>
	<g>
		<g>
			<path class="st2" d="M172.969,16.604H28.567c-6.165,0-11.162,4.998-11.162,11.162v24.278h166.728V27.766     C184.132,21.601,179.134,16.604,172.969,16.604z"/>
		</g>
	</g>
	<g>
		<g>
			<path class="st0" d="M172.969,15.104h-50.655c-0.829,0-1.5,0.672-1.5,1.5s0.671,1.5,1.5,1.5h50.655     c5.328,0,9.663,4.334,9.663,9.662v22.778H18.904V27.766c0-5.328,4.335-9.662,9.663-9.662h79.573c0.829,0,1.5-0.672,1.5-1.5     s-0.671-1.5-1.5-1.5H28.567c-6.982,0-12.663,5.681-12.663,12.662v24.278c0,0.828,0.671,1.5,1.5,1.5h166.727     c0.829,0,1.5-0.672,1.5-1.5V27.766C185.632,20.784,179.952,15.104,172.969,15.104z"/>
		</g>
	</g>
	<g>
		<g>
			<path class="st0" d="M163.755,102.21H35.369c-0.829,0-1.5,0.672-1.5,1.5s0.671,1.5,1.5,1.5h128.386c0.829,0,1.5-0.672,1.5-1.5     S164.583,102.21,163.755,102.21z"/>
		</g>
	</g>
	<g>
		<g>
			<path class="st0" d="M163.755,127.71H35.369c-0.829,0-1.5,0.672-1.5,1.5s0.671,1.5,1.5,1.5h128.386c0.829,0,1.5-0.672,1.5-1.5     S164.583,127.71,163.755,127.71z"/>
		</g>
	</g>
	<g>
		<g>
			<path class="st0" d="M163.755,76.71H35.369c-0.829,0-1.5,0.672-1.5,1.5s0.671,1.5,1.5,1.5h128.386c0.829,0,1.5-0.672,1.5-1.5     S164.583,76.71,163.755,76.71z"/>
		</g>
	</g>
	<g>
		<g>
			<path class="st0" d="M163.755,153.21H35.369c-0.829,0-1.5,0.672-1.5,1.5s0.671,1.5,1.5,1.5h128.386c0.829,0,1.5-0.672,1.5-1.5     S164.583,153.21,163.755,153.21z"/>
		</g>
	</g>
	<g>
		<g>
			<path class="st0" d="M141.393,178.71H35.369c-0.829,0-1.5,0.672-1.5,1.5s0.671,1.5,1.5,1.5h106.024c0.829,0,1.5-0.672,1.5-1.5     S142.222,178.71,141.393,178.71z"/>
		</g>
	</g>
	<g>
		<g>
			<path class="st0" d="M109.369,204.21h-74c-0.829,0-1.5,0.672-1.5,1.5s0.671,1.5,1.5,1.5h74c0.829,0,1.5-0.672,1.5-1.5     S110.197,204.21,109.369,204.21z"/>
		</g>
	</g>
	<g>
		<g>
			<path class="st1" d="M221.778,26.28c-0.974,11.563-13.024,13.39-13.024,13.39c10.346,0.487,12.925,14.059,12.925,14.059     C221.9,44.052,235,39.526,235,39.526C225.187,38.939,221.778,26.28,221.778,26.28z"/>
		</g>
	</g>
	<g>
		<g>
			<path class="st0" d="M235.089,38.029c-8.604-0.515-11.832-12.024-11.863-12.141c-0.191-0.703-0.86-1.167-1.583-1.102     c-0.725,0.066-1.298,0.642-1.359,1.367c-0.86,10.215-11.313,11.964-11.754,12.032c-0.763,0.116-1.313,0.791-1.273,1.561     c0.04,0.771,0.657,1.385,1.427,1.421c9.028,0.426,11.498,12.718,11.523,12.843c0.137,0.711,0.759,1.217,1.472,1.217     c0.042,0,0.084-0.002,0.126-0.005c0.764-0.064,1.357-0.693,1.375-1.46c0.195-8.509,12.192-12.777,12.313-12.819     c0.675-0.234,1.092-0.914,0.994-1.622C236.387,38.612,235.803,38.071,235.089,38.029z M221.523,48.375     c-1.356-3.13-3.709-6.907-7.587-8.876c2.931-1.405,6.409-3.914,8.202-8.273c1.551,3.071,4.199,6.88,8.334,8.723     C227.465,41.588,223.55,44.354,221.523,48.375z"/>
		</g>
	</g>
	<g>
		<g>
			<path class="st1" d="M200.079,43.261c-0.689,8.179-9.212,9.471-9.212,9.471c7.318,0.344,9.142,9.944,9.142,9.944     c0.156-6.845,9.422-10.046,9.422-10.046C202.49,52.215,200.079,43.261,200.079,43.261z"/>
		</g>
	</g>
	<g>
		<g>
			<path class="st0" d="M209.521,51.133c-5.766-0.345-7.972-8.186-7.994-8.265c-0.19-0.701-0.852-1.171-1.582-1.102     c-0.726,0.065-1.299,0.643-1.36,1.368c-0.579,6.871-7.646,8.066-7.942,8.113c-0.763,0.116-1.313,0.791-1.273,1.561     c0.04,0.771,0.657,1.385,1.427,1.421c6.036,0.284,7.724,8.645,7.74,8.727c0.135,0.713,0.759,1.22,1.472,1.22     c0.042,0,0.083-0.002,0.125-0.005c0.765-0.063,1.358-0.693,1.376-1.461c0.13-5.709,8.331-8.634,8.412-8.662     c0.677-0.234,1.094-0.913,0.996-1.622C210.82,51.717,210.235,51.175,209.521,51.133z M199.937,57.928     c-0.924-1.885-2.34-3.947-4.447-5.279c1.855-1.041,3.697-2.63,4.871-4.917c1.057,1.874,2.654,3.955,4.941,5.224     C203.451,54.056,201.313,55.695,199.937,57.928z"/>
		</g>
	</g>
	<g>
		<g>
			<path class="st1" d="M200.079,16.604c-0.689,8.179-9.212,9.47-9.212,9.47c7.318,0.344,9.142,9.944,9.142,9.944     c0.156-6.845,9.422-10.045,9.422-10.045C202.49,25.557,200.079,16.604,200.079,16.604z"/>
		</g>
	</g>
	<g>
		<g>
			<path class="st0" d="M209.521,24.476c-5.766-0.345-7.972-8.186-7.994-8.265c-0.19-0.702-0.852-1.164-1.582-1.102     c-0.726,0.065-1.299,0.643-1.36,1.368c-0.579,6.87-7.646,8.066-7.942,8.113c-0.763,0.116-1.313,0.791-1.273,1.561     c0.04,0.771,0.657,1.385,1.428,1.421c6.035,0.284,7.724,8.644,7.739,8.726c0.135,0.713,0.759,1.22,1.472,1.22     c0.042,0,0.083-0.002,0.125-0.005c0.765-0.063,1.358-0.693,1.376-1.461c0.13-5.708,8.331-8.633,8.412-8.661     c0.677-0.234,1.094-0.913,0.996-1.622C210.82,25.06,210.235,24.518,209.521,24.476z M199.937,31.271     c-0.924-1.886-2.34-3.947-4.447-5.28c1.855-1.041,3.697-2.629,4.871-4.916c1.057,1.874,2.654,3.954,4.941,5.224     C203.451,27.398,201.313,29.038,199.937,31.271z"/>
		</g>
	</g>
	<g>
		<g>
			<circle class="st1" cx="196.388" cy="196.714" r="40.931"/>
		</g>
	</g>
	<g>
		<g>
			<path class="st0" d="M196.389,154.283c-23.396,0-42.431,19.034-42.431,42.431s19.035,42.431,42.431,42.431     c23.397,0,42.431-19.034,42.431-42.431S219.785,154.283,196.389,154.283z M196.389,236.145     c-21.742,0-39.431-17.688-39.431-39.431s17.689-39.431,39.431-39.431c21.742,0,39.431,17.688,39.431,39.431     S218.131,236.145,196.389,236.145z"/>
		</g>
	</g>
	<g>
		<g>
			<path class="st4" d="M222.775,178.795c-1.85-2.05-5.012-2.214-7.063-0.363l-28.124,25.371l-9.793-13.828     c-1.597-2.254-4.718-2.786-6.97-1.191c-2.254,1.596-2.787,4.717-1.19,6.97l13.045,18.419c0.825,1.166,2.11,1.923,3.529,2.08     c0.185,0.02,0.368,0.03,0.551,0.03c1.23,0,2.426-0.455,3.35-1.288l32.302-29.14C224.461,184.007,224.625,180.845,222.775,178.795     z"/>
		</g>
	</g>
	<g>
		<g>
			<path class="st0" d="M223.889,177.79c-1.163-1.289-2.758-2.049-4.493-2.138c-1.728-0.088-3.399,0.502-4.688,1.666l-26.871,24.24     l-8.817-12.451c-1.004-1.417-2.499-2.358-4.211-2.65c-1.708-0.296-3.434,0.1-4.85,1.103c-1.417,1.004-2.359,2.499-2.651,4.211     c-0.292,1.711,0.099,3.435,1.103,4.851l13.045,18.419c1.072,1.515,2.744,2.5,4.596,2.705c0.237,0.025,0.474,0.039,0.708,0.039     c1.61,0,3.157-0.595,4.354-1.674l32.302-29.141c1.289-1.162,2.048-2.758,2.137-4.492     C225.643,180.744,225.052,179.079,223.889,177.79z M221.407,184.742l-32.301,29.14c-0.742,0.669-1.78,0.987-2.731,0.881     c-0.993-0.109-1.893-0.641-2.47-1.456l-13.045-18.42c-0.54-0.763-0.751-1.69-0.594-2.611c0.157-0.922,0.664-1.727,1.428-2.268     c0.598-0.423,1.296-0.645,2.015-0.645c0.198,0,0.397,0.018,0.596,0.051c0.922,0.157,1.727,0.665,2.268,1.428l9.793,13.828     c0.247,0.35,0.633,0.576,1.059,0.624c0.425,0.041,0.851-0.092,1.17-0.377l28.124-25.372c0.694-0.626,1.592-0.944,2.525-0.896     c0.934,0.048,1.792,0.457,2.419,1.151c0.626,0.693,0.944,1.59,0.897,2.523C222.509,183.258,222.101,184.116,221.407,184.742z"/>
		</g>
	</g>
	<g>
		<g>
			<path class="st9" d="M182.633,156.583V53.543h-15v103.04c-11.14,3.83-20.2,12.17-24.98,22.83c0.16,0.23,0.24,0.5,0.24,0.8     c0,0.72-0.5,1.32-1.18,1.46c-1.79,4.68-2.76,9.75-2.76,15.04c0,17.34,10.46,32.27,25.4,38.85c-1.71,1.5-3.94,2.42-6.38,2.42h15     c2.44,0,4.67-0.92,6.38-2.42c-14.94-6.58-25.4-21.51-25.4-38.85C153.953,178.133,165.973,162.313,182.633,156.583z"/>
		</g>
	</g>
	<g>
		<g>
			<path class="st16" d="M172.973,18.104h-15c5.32,0,9.66,4.33,9.66,9.66v22.78h15v-22.78     C182.633,22.434,178.293,18.104,172.973,18.104z"/>
		</g>
	</g>
</g>
</svg>
