<svg height="512" viewBox="0 0 64 64" width="512" xmlns="http://www.w3.org/2000/svg"><path d="M25 2.5c-8.28 0-15 6.71-15 15v8.811L25 23.5l15 2.811V17.5c0-8.29-6.72-15-15-15z" fill="#ccd1d9"/><path d="M30 61.5H20c0-2.76 2.24-5 5-5s5 2.24 5 5z" fill="#ed5565"/><path d="M59 24.5v9H49v-9h-4l9-11.01 9 11.01z" fill="#a0d468"/><path d="M14 16.5h7v3h-7zm15 0h7v3h-7z" fill="#656d78"/><path d="M10 26.311L25 23.5l15 2.811 1 .189v9L33 40l-8 4.5-8-4.5-8-4.5v-9z" fill="#e6e9ed"/><path d="M33 40v5.5l-8 4-8-4V40l8 4.5z" fill="#ccd1d9"/><path d="M49 53.5v7c0 .55-.45 1-1 1h-4c-7-6-7-16-7-16h4c4.42 0 8 3.58 8 8z" fill="#e6e9ed"/><path d="M25 49.5l8-4h4s0 10 7 16H30c0-2.76-2.24-5-5-5s-5 2.24-5 5H6c7-6 7-16 7-16h4z" fill="#656d78"/><path d="M9 45.5h4s0 10-7 16H2c-.55 0-1-.45-1-1v-7c0-4.42 3.58-8 8-8z" fill="#e6e9ed"/><path d="M1 54.503a1 1 0 01-1-1c0-4.964 4.038-9.002 9.002-9.002a1 1 0 110 2A7.01 7.01 0 002 53.503a1 1 0 01-1 1zm48-.001a1 1 0 01-1-1c0-3.859-3.141-7-7-7a1 1 0 110-2c4.963 0 9 4.037 9 9a1 1 0 01-1 1z"/><path d="M17 46.502l-7.998-.001a1 1 0 110-2l7.998.001a1 1 0 110 2zm24 0l-8-.001a1 1 0 110-2l8 .001a1 1 0 110 2zM1.001 61.5a1 1 0 01-1-1L0 53.503a1 1 0 112 0l.001 6.997a1 1 0 01-1 1z"/><path d="M2.001 62.5c-1.103 0-2-.897-2-2a1 1 0 112 0v.002a.998.998 0 110 1.998zM48 62.5a1 1 0 110-2h.002a.998.998 0 111.998 0c0 1.103-.897 2-2 2z"/><path d="M49 61.5a1 1 0 01-1-1v-6.998a1 1 0 112 0V60.5a1 1 0 01-1 1z"/><path d="M48 62.5H2.001a1 1 0 110-2H48a1 1 0 110 2zM17 46.502a1 1 0 01-1-1V40a1 1 0 112 0v5.502a1 1 0 01-1 1zm16-.001a1 1 0 01-1-1V40a1 1 0 112 0v5.501a1 1 0 01-1 1z"/><path d="M24.999 50.502c-.15 0-.303-.034-.446-.105l-8-4a1 1 0 01.895-1.789l8 4a1 1 0 01-.449 1.894z"/><path d="M25.001 50.502a1 1 0 01-.449-1.895l8-4.001a1 1 0 01.895 1.789l-8 4.001a.99.99 0 01-.446.106zM8.999 27.5a.998.998 0 01-.183-1.982l16-3a.998.998 0 11.369 1.965l-16 3a1.081 1.081 0 01-.186.017z"/><path d="M41.001 27.5a.993.993 0 01-.186-.018l-16-3a1 1 0 11.369-1.965l16 3a1 1 0 01-.183 1.983zM40 18.5a1 1 0 01-1-1c0-7.72-6.28-14-14-14s-14 6.28-14 14a1 1 0 11-2 0c0-8.822 7.178-16 16-16s16 7.178 16 16a1 1 0 01-1 1z"/><path d="M10 27.313a1 1 0 01-1-1V17.5a1 1 0 112 0v8.813a1 1 0 01-1 1zm30 0a1 1 0 01-1-1V17.5a1 1 0 112 0v8.813a1 1 0 01-1 1zM25 20.5a1 1 0 01-1-1v-13a1 1 0 112 0v13a1 1 0 01-1 1zm0 20a1 1 0 01-1-1v-11a1 1 0 112 0v11a1 1 0 01-1 1zm5-2.812a1 1 0 01-1-1V29.5a1 1 0 112 0v7.188a1 1 0 01-1 1zm5-2.813a1 1 0 01-1-1v-3.5a1 1 0 112 0v3.5a1 1 0 01-1 1zm-15 2.813a1 1 0 01-1-1V29.5a1 1 0 112 0v7.188a1 1 0 01-1 1zm-5-2.813a1 1 0 01-1-1v-3.5a1 1 0 112 0v3.5a1 1 0 01-1 1z"/><path d="M9 36.5a1 1 0 01-1-1v-9a1 1 0 112 0v9a1 1 0 01-1 1z"/><path d="M24.999 45.5a.986.986 0 01-.489-.129l-16-9a1 1 0 11.98-1.742l16 9a1 1 0 01-.491 1.871zM41 36.5a1 1 0 01-1-1v-9a1 1 0 112 0v9a1 1 0 01-1 1z"/><path d="M25.001 45.5a1 1 0 01-.491-1.871l16-9a.997.997 0 011.361.381.998.998 0 01-.381 1.361l-16 9a.986.986 0 01-.489.129zM21 20.5h-7a1 1 0 01-1-1v-3a1 1 0 011-1h7a1 1 0 011 1v3a1 1 0 01-1 1zm-6-2h5v-1h-5zm21 2h-7a1 1 0 01-1-1v-3a1 1 0 011-1h7a1 1 0 011 1v3a1 1 0 01-1 1zm-6-2h5v-1h-5zm14 44a.993.993 0 01-.65-.241C36.084 56.031 36 45.929 36 45.502c0-.552.447-.999.999-.999H37a1 1 0 011 .998c0 .096.096 9.621 6.65 15.24.42.359.469.99.108 1.409a.99.99 0 01-.758.35zm-38 0a.993.993 0 01-.759-.35.998.998 0 01.108-1.409C11.924 55.105 12 45.598 12 45.502a1 1 0 112 0c0 .427-.084 10.529-7.35 16.757A.993.993 0 016 62.5zm19-9a1 1 0 01-1-1v-2.998a1 1 0 112 0V52.5a1 1 0 01-1 1zm5 9a1 1 0 01-1-1c0-2.206-1.794-4-4-4s-4 1.794-4 4a1 1 0 11-2 0c0-3.309 2.691-6 6-6s6 2.691 6 6a1 1 0 01-1 1zm33.001-37a.998.998 0 01-.775-.367l-8.228-10.057-8.227 10.057a1 1 0 01-1.549-1.265l9.001-11.003c.381-.465 1.168-.465 1.549 0l9.002 11.003a1 1 0 01-.773 1.632z"/><path d="M48.998 34.5a1 1 0 01-1-1v-9a1 1 0 112 0v9a1 1 0 01-1 1z"/><path d="M58.998 34.5h-10a1 1 0 110-2h10a1 1 0 110 2z"/><path d="M58.998 34.5a1 1 0 01-1-1v-9a1 1 0 112 0v9a1 1 0 01-1 1zm.001 3H48.998a1 1 0 110-2h10.001a1 1 0 110 2zm0 3H48.998a1 1 0 110-2h10.001a1 1 0 110 2zm0 3H48.998a1 1 0 110-2h10.001a1 1 0 110 2zm-10.001-18h-4.001a1 1 0 110-2h4.001a1 1 0 110 2z"/><path d="M63 25.5h-4.002a1 1 0 110-2H63a1 1 0 110 2zm-7 2h-4a1 1 0 110-2h4a1 1 0 110 2z"/><path d="M54 29.499a1 1 0 01-1-1v-3.998a1 1 0 112 0v3.998a1 1 0 01-1 1zM50 11.5a1 1 0 01-1-1v-5a1 1 0 112 0v5a1 1 0 01-1 1zm4.001 0a1 1 0 01-.896-.553l-1.501-3.001a1 1 0 011.789-.895l1.501 3.001a1 1 0 01-.893 1.448z"/><path d="M53.999 11.5a1 1 0 01-.893-1.447l1.5-3.001a1 1 0 011.789.895l-1.5 3.001a1 1 0 01-.896.552zm4.002 0a1 1 0 01-1-1v-5a1 1 0 112 0v5a1 1 0 01-1 1z"/></svg>