<svg xmlns="http://www.w3.org/2000/svg" version="1.1" id="Layer_1" x="0" y="0" viewBox="0 0 256 256" xml:space="preserve" width="512" height="512"><style>.st0{fill:#3a312a}.st1{fill:#d7e057}</style><path d="M17.404 52.043v176.28c0 6.16 5 11.16 11.16 11.16h144.41c6.16 0 11.16-5 11.16-11.16V52.043H17.404z" fill="#fce8cb"/><path class="st0" d="M184.133 50.544H17.403a1.5 1.5 0 00-1.5 1.5v37.017a1.5 1.5 0 103 0V53.544h163.73v174.779c0 5.326-4.333 9.66-9.66 9.66H28.564c-5.327 0-9.66-4.334-9.66-9.66v-124.63a1.5 1.5 0 10-3 0v124.63c0 6.98 5.679 12.66 12.66 12.66h144.41c6.981 0 12.66-5.68 12.66-12.66V52.044a1.501 1.501 0 00-1.501-1.5z"/><path d="M172.969 16.604H28.567c-6.165 0-11.162 4.998-11.162 11.162v24.278h166.728V27.766c-.001-6.165-4.999-11.162-11.164-11.162z" fill="#f16c7a"/><path class="st0" d="M172.969 15.104h-50.655a1.5 1.5 0 100 3h50.655c5.328 0 9.663 4.334 9.663 9.662v22.778H18.904V27.766c0-5.328 4.335-9.662 9.663-9.662h79.573a1.5 1.5 0 100-3H28.567c-6.982 0-12.663 5.681-12.663 12.662v24.278a1.5 1.5 0 001.5 1.5h166.727a1.5 1.5 0 001.5-1.5V27.766c.001-6.982-5.679-12.662-12.662-12.662zm-9.214 87.106H35.369a1.5 1.5 0 100 3h128.386a1.5 1.5 0 100-3zm0 25.5H35.369a1.5 1.5 0 100 3h128.386a1.5 1.5 0 100-3zm0-51H35.369a1.5 1.5 0 100 3h128.386a1.5 1.5 0 100-3zm0 76.5H35.369a1.5 1.5 0 100 3h128.386a1.5 1.5 0 100-3zm-22.362 25.5H35.369a1.5 1.5 0 100 3h106.024a1.5 1.5 0 100-3zm-32.024 25.5h-74a1.5 1.5 0 100 3h74a1.5 1.5 0 100-3z"/><path class="st1" d="M221.778 26.28c-.974 11.563-13.024 13.39-13.024 13.39 10.346.487 12.925 14.059 12.925 14.059C221.9 44.052 235 39.526 235 39.526c-9.813-.587-13.222-13.246-13.222-13.246z"/><path class="st0" d="M235.089 38.029c-8.604-.515-11.832-12.024-11.863-12.141a1.5 1.5 0 00-2.942.265c-.86 10.215-11.313 11.964-11.754 12.032a1.5 1.5 0 00.154 2.982c9.028.426 11.498 12.718 11.523 12.843a1.5 1.5 0 002.973-.248c.195-8.509 12.192-12.777 12.313-12.819a1.5 1.5 0 00-.404-2.914zm-13.566 10.346c-1.356-3.13-3.709-6.907-7.587-8.876 2.931-1.405 6.409-3.914 8.202-8.273 1.551 3.071 4.199 6.88 8.334 8.723-3.007 1.639-6.922 4.405-8.949 8.426z"/><path class="st1" d="M200.079 43.261c-.689 8.179-9.212 9.471-9.212 9.471 7.318.344 9.142 9.944 9.142 9.944.156-6.845 9.422-10.046 9.422-10.046-6.941-.415-9.352-9.369-9.352-9.369z"/><path class="st0" d="M209.521 51.133c-5.766-.345-7.972-8.186-7.994-8.265a1.5 1.5 0 00-2.942.266c-.579 6.871-7.646 8.066-7.942 8.113a1.5 1.5 0 00.154 2.982c6.036.284 7.724 8.645 7.74 8.727a1.5 1.5 0 002.973-.246c.13-5.709 8.331-8.634 8.412-8.662a1.499 1.499 0 00-.401-2.915zm-9.584 6.795c-.924-1.885-2.34-3.947-4.447-5.279 1.855-1.041 3.697-2.63 4.871-4.917 1.057 1.874 2.654 3.955 4.941 5.224-1.851 1.1-3.989 2.739-5.365 4.972z"/><path class="st1" d="M200.079 16.604c-.689 8.179-9.212 9.47-9.212 9.47 7.318.344 9.142 9.944 9.142 9.944.156-6.845 9.422-10.045 9.422-10.045-6.941-.416-9.352-9.369-9.352-9.369z"/><path class="st0" d="M209.521 24.476c-5.766-.345-7.972-8.186-7.994-8.265a1.5 1.5 0 00-2.942.266c-.579 6.87-7.646 8.066-7.942 8.113a1.5 1.5 0 00.155 2.982c6.035.284 7.724 8.644 7.739 8.726a1.5 1.5 0 002.973-.246c.13-5.708 8.331-8.633 8.412-8.661a1.499 1.499 0 00-.401-2.915zm-9.584 6.795c-.924-1.886-2.34-3.947-4.447-5.28 1.855-1.041 3.697-2.629 4.871-4.916 1.057 1.874 2.654 3.954 4.941 5.224-1.851 1.099-3.989 2.739-5.365 4.972z"/><circle class="st1" cx="196.388" cy="196.714" r="40.931"/><path class="st0" d="M196.389 154.283c-23.396 0-42.431 19.034-42.431 42.431s19.035 42.431 42.431 42.431c23.397 0 42.431-19.034 42.431-42.431s-19.035-42.431-42.431-42.431zm0 81.862c-21.742 0-39.431-17.688-39.431-39.431s17.689-39.431 39.431-39.431c21.742 0 39.431 17.688 39.431 39.431s-17.689 39.431-39.431 39.431z"/><path d="M222.775 178.795a5 5 0 00-7.063-.363l-28.124 25.371-9.793-13.828a5 5 0 00-8.16 5.779l13.045 18.419a4.997 4.997 0 007.43.822l32.302-29.14a4.999 4.999 0 00.363-7.06z" fill="#87796f"/><path class="st0" d="M223.889 177.79a6.457 6.457 0 00-4.493-2.138 6.468 6.468 0 00-4.688 1.666l-26.871 24.24-8.817-12.451a6.457 6.457 0 00-4.211-2.65 6.443 6.443 0 00-4.85 1.103 6.458 6.458 0 00-2.651 4.211 6.456 6.456 0 001.103 4.851l13.045 18.419a6.504 6.504 0 005.304 2.744c1.61 0 3.157-.595 4.354-1.674l32.302-29.141a6.454 6.454 0 002.137-4.492 6.453 6.453 0 00-1.664-4.688zm-2.482 6.952l-32.301 29.14a3.574 3.574 0 01-2.731.881 3.498 3.498 0 01-2.47-1.456l-13.045-18.42a3.478 3.478 0 01-.594-2.611 3.475 3.475 0 011.428-2.268 3.475 3.475 0 012.611-.594 3.48 3.48 0 012.268 1.428l9.793 13.828a1.5 1.5 0 001.059.624c.425.041.851-.092 1.17-.377l28.124-25.372a3.48 3.48 0 012.525-.896 3.479 3.479 0 012.419 1.151c.626.693.944 1.59.897 2.523a3.49 3.49 0 01-1.153 2.419z"/><path d="M182.633 156.583V53.543h-15v103.04c-11.14 3.83-20.2 12.17-24.98 22.83.16.23.24.5.24.8 0 .72-.5 1.32-1.18 1.46a42.007 42.007 0 00-2.76 15.04c0 17.34 10.46 32.27 25.4 38.85a9.65 9.65 0 01-6.38 2.42h15c2.44 0 4.67-.92 6.38-2.42-14.94-6.58-25.4-21.51-25.4-38.85 0-18.58 12.02-34.4 28.68-40.13z" fill="#decaad"/><path d="M172.973 18.104h-15c5.32 0 9.66 4.33 9.66 9.66v22.78h15v-22.78c0-5.33-4.34-9.66-9.66-9.66z" fill="#d34e5c"/></svg>