<svg xmlns="http://www.w3.org/2000/svg" viewBox="0 0 508 508"><circle cx="254" cy="254" r="254" fill="#324a5e"/><g fill="#2b3b4e"><path d="M465.2 218.4v52.8c0 3.6-3.2 6.8-7.2 6-2.8-.4-4.8-2.8-5.2-5.6l-5.2-54c0-1.6-1.6-3.2-3.6-3.2s-3.6 1.6-3.6 3.6v159.2c0 4.4-3.2 8.4-7.6 9.2-4.8.4-9.2-2.8-9.6-7.6l-8.4-83.6c0-2-2-3.6-4-3.6s-3.6 1.6-3.6 3.6l-6.4 82.8c-.4 4.4-4 8-8.8 8h-1.6c-4.8 0-8.8-4-8.8-8.8V218c0-2-1.6-3.6-3.6-3.6-1.6 0-2.8.8-3.2 2.4 0-2 2-4 4-4s4 1.6 4 4l6.4 65.2c.4 3.6 2.8 6.4 6.4 6.8 4.8.8 8.8-2.8 8.8-7.2V218c0-18-7.2-34.4-19.2-46.4 7.2-4.4 15.6-6.8 24.8-7.2 30-.8 55.2 23.6 55.2 54z"/><circle cx="411.2" cy="131.2" r="25.2"/><path d="M126.4 216.8c0-.8.4-1.2.4-1.6-.4.4-.4.8-.4 1.6l.4 158.8c0 4.4-3.2 8.4-7.6 9.2-4.8.4-9.2-2.8-9.6-7.6l-8.4-83.6c0-2-2-3.6-4-3.6s-3.6 1.6-3.6 3.6l-6.8 83.2c-.4 4.4-4 8-8.8 8h-1.6c-4.8 0-8.8-4-8.8-8.8V216.4c0-2-1.6-3.6-3.6-3.6-1.6 0-3.2 1.2-3.6 3.2l-5.2 54c-.4 3.2-2.8 5.6-6 5.6-3.6 0-6-2.8-6-6V218c0-29.6 23.2-54.4 52.4-55.2 11.2-.4 21.2 2.8 30 8-12.4 12.4-20 29.6-20 48v62.4c0 4 3.2 7.6 7.6 7.6 4 0 7.2-2.8 7.2-6.8l6-65.2zm8 .4v11.6l-1.2-12.4c0-1.6-1.2-2.8-2.8-3.2 2.4 0 4 1.6 4 4z"/><circle cx="96.8" cy="130" r="25.2"/></g><g fill="#ff7058"><path d="M298 212.8c.8 0 1.6.4 2.4.8-.4 0-1.2-.4-1.6-.4-2 0-4 1.6-4 4l-1.2 12.8v-12.8c0-2.4 2-4.4 4.4-4.4zm106 5.2v63.6c0 4.4-4 8-8.8 7.2-3.6-.4-6-3.6-6.4-6.8l-6-65.2c0-2-2-4-4-4-2.4 0-4.4 2-4.4 4.4v192c0 5.2-4 10.4-9.2 10.8-6 .8-10.8-3.6-11.6-9.2l-10-100.8c-.4-2.4-2-4-4.4-4s-4.4 2-4.4 4.4L326 410.8c-.4 5.2-5.2 9.6-10.4 9.6h-2c-5.6 0-10.4-4.8-10.4-10.4V222l6 65.2c.4 3.6 3.2 6.8 6.8 7.6 5.2.8 9.2-3.2 9.2-8V218c0-21.2-9.2-40-24-53.2 10-7.2 22.4-11.6 35.6-12C374 151.6 404 181.2 404 218z"/><circle cx="338.8" cy="112.4" r="30.4"/></g><g fill="#84dbff"><path d="M184 219.2v67.6c0 4.4 3.6 8 8 8 4 0 7.6-3.2 8-7.2l6-66v187.6c0 5.2-4 10.4-9.2 10.8-5.6.8-10.8-3.6-11.6-9.2L174.8 310c-.4-2.4-2.4-4-4.4-4-2.4 0-4.4 1.6-4.4 4l-8.4 100.8c-.4 5.2-5.2 9.6-10.4 9.6h-2c-5.6 0-10.4-4.8-10.4-10.4V217.2c0-2.4-2-4.4-4.4-4.4-2 0-4 1.6-4 4L120 282c-.4 4-3.6 6.8-7.2 6.8-4 0-7.6-3.2-7.6-7.6v-62c0-35.6 28-65.6 63.2-66.4 14.8-.4 28.4 4 39.6 12-14.8 13.2-24 32.8-24 54.4z"/><path d="M130.4 213.2c-1.6 0-2.8.8-3.6 2 .4-1.2 1.6-2.4 3.6-2-.4-.4-.4-.4 0 0zm85.2 4V230l-1.2-13.2c0-2-2-4-4-4-.4 0-1.2 0-1.6.4.8-.4 1.6-.8 2.4-.8 2.4.4 4.4 2.4 4.4 4.8z"/><circle cx="170.4" cy="112.4" r="30.4"/></g><g fill="#fff"><path d="M252.8 147.2c-38.4 1.2-68.8 33.6-68.8 72.4v67.6c0 4.4 3.6 8 8 8 4 0 7.6-3.2 8-7.2l6.8-70.8c.4-2.4 2-4 4.4-4s4.4 2 4.4 4.4v209.2c0 6.4 5.2 11.2 11.2 11.2h2.4c6 0 10.8-4.4 11.2-10.4l9.2-109.6c.4-2.4 2.4-4.4 4.8-4.4s4.8 2 4.8 4.4l11.2 110c.8 6 6.4 10.8 12.4 10s10-6 10-12V217.2c0-2.4 2-4.4 4.4-4.4s4.4 1.6 4.4 4l6.8 70.8c.4 3.6 3.2 6.8 6.8 7.6 5.2.8 9.2-3.2 9.2-8V218c1.2-40-31.6-72-71.6-70.8z"/><path d="M208.8 213.2c-1.2.8-2 2-2 3.6l-.8 4.8v-4.4c0-1.6 1.2-3.2 2.8-4z"/><circle cx="254.8" cy="103.6" r="33.2"/></g></svg>